<?xml version="1.0" encoding="UTF-8"?>
<svg width="487px" height="490px" viewBox="0 0 487 490" version="1.1" xmlns="http://www.w3.org/2000/svg" xmlns:xlink="http://www.w3.org/1999/xlink">
    <!-- Generator: Sketch 49.3 (51167) - http://www.bohemiancoding.com/sketch -->
    <title>robot</title>
    <desc>Created with Sketch.</desc>
    <defs></defs>
    <g id="Page-1" stroke="none" stroke-width="1" fill="none" fill-rule="evenodd">
        <g id="Desktop-Copy" transform="translate(-269.000000, -164.000000)">
            <g id="robot" transform="translate(269.000000, 164.000000)">
                <g id="ear-antenna-left" transform="translate(0.000000, 110.000000)">
                    <rect id="Rectangle-6" fill="#FD6256" x="11" y="6" width="60" height="9"></rect>
                    <circle id="Oval" fill="#FD4F42" cx="10.5" cy="10.5" r="10.5"></circle>
                </g>
                <g id="ear-antenna-left" transform="translate(452.950300, 110.008488) rotate(-200.000000) translate(-452.950300, -110.008488) translate(417.450300, 99.508488)">
                    <rect id="Rectangle-6" fill="#FD6256" x="11" y="6" width="60" height="9"></rect>
                    <circle id="Oval" fill="#FD4F42" cx="10.5" cy="10.5" r="10.5"></circle>
                </g>
                <rect id="ear-left" fill="#FD4F42" x="50" y="80" width="40" height="81" rx="12"></rect>
                <rect id="ear-right" fill="#FD4F42" x="396" y="80" width="40" height="81" rx="12"></rect>
                <rect id="head" fill="#FD6256" x="78" y="0" width="330" height="240" rx="100"></rect>
                <rect id="Rectangle-2" fill="#FD6256" x="78" y="0" width="330" height="240" rx="100"></rect>
                <rect id="eyes" fill="#FFD863" x="128" y="80" width="230" height="81" rx="40.5"></rect>
                <rect id="eye-left" fill="#4A4A4A" x="175" y="98" width="21" height="45" rx="6"></rect>
                <rect id="eye-left" fill="#4A4A4A" x="294" y="98" width="21" height="45" rx="6"></rect>
                <path d="M262.723472,193 C262.905337,194.115 263,195.260415 263,196.428571 C263,207.789858 254.045695,217 243,217 C231.954305,217 223,207.789858 223,196.428571 C223,195.260415 223.094663,194.115 223.276528,193 L262.723472,193 Z" id="mouth" fill="#4A4A4A"></path>
                <path d="M68.9117582,246 L417.090945,246 C425.375216,246 432.090945,252.715729 432.090945,261 C432.090945,262.17053 431.953933,263.337036 431.682705,264.475708 L400.631327,394.835972 C395.244775,417.449857 391.415541,425.220155 385.627213,432.914062 C379.838885,440.607968 372.531181,446.379453 363.705435,450.227461 C354.87969,454.075469 346.433582,456 323.187018,456 L162.815685,456 C139.569121,456 131.123013,454.075469 122.297268,450.227461 C113.471523,446.379453 106.163818,440.607968 100.37549,432.914062 C94.587162,425.220155 90.7579284,417.449857 85.3713767,394.835972 L54.3199985,264.475708 C52.4004178,256.416902 57.3772436,248.327821 65.4360499,246.40824 C66.5747223,246.137012 67.7412287,246 68.9117582,246 Z" id="body" fill="#FD6256"></path>
                <path d="M179.656034,460 L306.344262,460 L295.872405,479.143706 C293.541966,483.404005 292.452878,484.79381 291.000266,486.144536 C289.547655,487.495261 287.921759,488.459127 286.039624,489.085312 C284.157489,489.711497 282.415526,490 277.559489,490 L208.440807,490 C203.58477,490 201.842807,489.711497 199.960672,489.085312 C198.078537,488.459127 196.452641,487.495261 195.00003,486.144536 C193.547418,484.79381 192.45833,483.404005 190.127891,479.143706 L179.656034,460 Z" id="Rectangle-7" fill="#FD6256"></path>
                <g id="Group" transform="translate(196.000000, 284.000000)">
                    <rect id="Rectangle-8" fill="#4A4A4A" transform="translate(47.000000, 47.000000) rotate(-315.000000) translate(-47.000000, -47.000000) " x="14" y="14" width="66" height="66" rx="18"></rect>
                    <path d="M58.9339031,40.5256268 C58.8181772,40.2771346 58.5689405,40.1176496 58.2943914,40.1176496 L49.9297003,40.1176496 L58.1849522,27.0835551 C58.3225991,26.8661657 58.3310365,26.5908721 58.2068732,26.3657071 C58.0826271,26.1397975 57.8453848,26 57.5884551,26 L46.2943851,26 C46.0268672,26 45.7825937,26.1510475 45.6626491,26.3903578 L35.0744326,47.5667908 C34.9649934,47.7849246 34.9769879,48.0446668 35.1054527,48.2528741 C35.2346621,48.4610815 35.4612334,48.5881401 35.7061686,48.5881401 L42.9647219,48.5881401 L35.0553242,67.3730424 C34.9204898,67.6942459 35.0405172,68.0669015 35.337649,68.2490519 C35.4519687,68.3189507 35.5790273,68.3527833 35.7054241,68.3527833 C35.9080065,68.3527833 36.1077763,68.2659269 36.2461676,68.1022231 L58.8343904,41.2787137 C59.0114949,41.0684383 59.049629,40.7747808 58.9339031,40.5256268 Z" id="Shape" fill="#FFD863" fill-rule="nonzero"></path>
                </g>
                <circle id="Oval-2" fill="#FFFFFF" cx="90" cy="273" r="6"></circle>
                <circle id="Oval-2" fill="#FFD863" cx="110" cy="273" r="6"></circle>
                <circle id="Oval-2" fill="#4A4A4A" cx="130" cy="273" r="6"></circle>
            </g>
        </g>
    </g>
</svg>